<mxfile host="app.diagrams.net" modified="2021-10-30T18:34:22.358Z" agent="5.0 (Windows NT 10.0; Win64; x64) AppleWebKit/537.36 (KHTML, like Gecko) Chrome/95.0.4638.54 Safari/537.36" etag="RBpYLv0hlmJYH_YRLUoj" version="15.6.2" type="github">
  <diagram id="d3Fe0zUvUjGQNnASEu34" name="Page-1">
    <mxGraphModel dx="1865" dy="1716" grid="1" gridSize="10" guides="1" tooltips="1" connect="1" arrows="1" fold="1" page="1" pageScale="1" pageWidth="827" pageHeight="1169" math="0" shadow="0">
      <root>
        <mxCell id="0" />
        <mxCell id="1" parent="0" />
        <mxCell id="gFz-W14YJBDqkf8OOEzb-13" value="class Product" style="swimlane;fontStyle=1;childLayout=stackLayout;horizontal=1;startSize=26;horizontalStack=0;resizeParent=1;resizeParentMax=0;resizeLast=0;collapsible=1;marginBottom=0;" parent="1" vertex="1">
          <mxGeometry x="27" y="430" width="386" height="286" as="geometry" />
        </mxCell>
        <mxCell id="gFz-W14YJBDqkf8OOEzb-25" value="+ Product( name, price_old, price, colorList, imgList, ram, rom, brand)" style="text;strokeColor=#d79b00;fillColor=#ffe6cc;align=left;verticalAlign=top;spacingLeft=4;spacingRight=4;overflow=hidden;rotatable=0;points=[[0,0.5],[1,0.5]];portConstraint=eastwest;" parent="gFz-W14YJBDqkf8OOEzb-13" vertex="1">
          <mxGeometry y="26" width="386" height="26" as="geometry" />
        </mxCell>
        <mxCell id="gFz-W14YJBDqkf8OOEzb-14" value="+ productId : int (auto increase)" style="text;strokeColor=none;fillColor=none;align=left;verticalAlign=top;spacingLeft=4;spacingRight=4;overflow=hidden;rotatable=0;points=[[0,0.5],[1,0.5]];portConstraint=eastwest;" parent="gFz-W14YJBDqkf8OOEzb-13" vertex="1">
          <mxGeometry y="52" width="386" height="26" as="geometry" />
        </mxCell>
        <mxCell id="gFz-W14YJBDqkf8OOEzb-15" value="+ name : string" style="text;strokeColor=none;fillColor=none;align=left;verticalAlign=top;spacingLeft=4;spacingRight=4;overflow=hidden;rotatable=0;points=[[0,0.5],[1,0.5]];portConstraint=eastwest;" parent="gFz-W14YJBDqkf8OOEzb-13" vertex="1">
          <mxGeometry y="78" width="386" height="26" as="geometry" />
        </mxCell>
        <mxCell id="gFz-W14YJBDqkf8OOEzb-16" value="+ price_old : int" style="text;strokeColor=none;fillColor=none;align=left;verticalAlign=top;spacingLeft=4;spacingRight=4;overflow=hidden;rotatable=0;points=[[0,0.5],[1,0.5]];portConstraint=eastwest;" parent="gFz-W14YJBDqkf8OOEzb-13" vertex="1">
          <mxGeometry y="104" width="386" height="26" as="geometry" />
        </mxCell>
        <mxCell id="gFz-W14YJBDqkf8OOEzb-26" value="+ price : int" style="text;strokeColor=none;fillColor=none;align=left;verticalAlign=top;spacingLeft=4;spacingRight=4;overflow=hidden;rotatable=0;points=[[0,0.5],[1,0.5]];portConstraint=eastwest;" parent="gFz-W14YJBDqkf8OOEzb-13" vertex="1">
          <mxGeometry y="130" width="386" height="26" as="geometry" />
        </mxCell>
        <mxCell id="gFz-W14YJBDqkf8OOEzb-27" value="+ colorList : string []" style="text;strokeColor=none;fillColor=none;align=left;verticalAlign=top;spacingLeft=4;spacingRight=4;overflow=hidden;rotatable=0;points=[[0,0.5],[1,0.5]];portConstraint=eastwest;" parent="gFz-W14YJBDqkf8OOEzb-13" vertex="1">
          <mxGeometry y="156" width="386" height="26" as="geometry" />
        </mxCell>
        <mxCell id="gFz-W14YJBDqkf8OOEzb-28" value="+ imgList : string []" style="text;strokeColor=none;fillColor=none;align=left;verticalAlign=top;spacingLeft=4;spacingRight=4;overflow=hidden;rotatable=0;points=[[0,0.5],[1,0.5]];portConstraint=eastwest;" parent="gFz-W14YJBDqkf8OOEzb-13" vertex="1">
          <mxGeometry y="182" width="386" height="26" as="geometry" />
        </mxCell>
        <mxCell id="gFz-W14YJBDqkf8OOEzb-29" value="+ ram : int" style="text;strokeColor=none;fillColor=none;align=left;verticalAlign=top;spacingLeft=4;spacingRight=4;overflow=hidden;rotatable=0;points=[[0,0.5],[1,0.5]];portConstraint=eastwest;" parent="gFz-W14YJBDqkf8OOEzb-13" vertex="1">
          <mxGeometry y="208" width="386" height="26" as="geometry" />
        </mxCell>
        <mxCell id="gFz-W14YJBDqkf8OOEzb-30" value="+ rom: int" style="text;strokeColor=none;fillColor=none;align=left;verticalAlign=top;spacingLeft=4;spacingRight=4;overflow=hidden;rotatable=0;points=[[0,0.5],[1,0.5]];portConstraint=eastwest;" parent="gFz-W14YJBDqkf8OOEzb-13" vertex="1">
          <mxGeometry y="234" width="386" height="26" as="geometry" />
        </mxCell>
        <mxCell id="gFz-W14YJBDqkf8OOEzb-31" value="+ brand: string" style="text;strokeColor=none;fillColor=none;align=left;verticalAlign=top;spacingLeft=4;spacingRight=4;overflow=hidden;rotatable=0;points=[[0,0.5],[1,0.5]];portConstraint=eastwest;" parent="gFz-W14YJBDqkf8OOEzb-13" vertex="1">
          <mxGeometry y="260" width="386" height="26" as="geometry" />
        </mxCell>
        <mxCell id="gFz-W14YJBDqkf8OOEzb-32" value="class CartItem" style="swimlane;fontStyle=0;childLayout=stackLayout;horizontal=1;startSize=26;fillColor=none;horizontalStack=0;resizeParent=1;resizeParentMax=0;resizeLast=0;collapsible=1;marginBottom=0;" parent="1" vertex="1">
          <mxGeometry x="560" y="430" width="140" height="104" as="geometry" />
        </mxCell>
        <mxCell id="gFz-W14YJBDqkf8OOEzb-33" value="+ field: type" style="text;strokeColor=none;fillColor=none;align=left;verticalAlign=top;spacingLeft=4;spacingRight=4;overflow=hidden;rotatable=0;points=[[0,0.5],[1,0.5]];portConstraint=eastwest;" parent="gFz-W14YJBDqkf8OOEzb-32" vertex="1">
          <mxGeometry y="26" width="140" height="26" as="geometry" />
        </mxCell>
        <mxCell id="gFz-W14YJBDqkf8OOEzb-34" value="+ field: type" style="text;strokeColor=none;fillColor=none;align=left;verticalAlign=top;spacingLeft=4;spacingRight=4;overflow=hidden;rotatable=0;points=[[0,0.5],[1,0.5]];portConstraint=eastwest;" parent="gFz-W14YJBDqkf8OOEzb-32" vertex="1">
          <mxGeometry y="52" width="140" height="26" as="geometry" />
        </mxCell>
        <mxCell id="gFz-W14YJBDqkf8OOEzb-35" value="+ field: type" style="text;strokeColor=none;fillColor=none;align=left;verticalAlign=top;spacingLeft=4;spacingRight=4;overflow=hidden;rotatable=0;points=[[0,0.5],[1,0.5]];portConstraint=eastwest;" parent="gFz-W14YJBDqkf8OOEzb-32" vertex="1">
          <mxGeometry y="78" width="140" height="26" as="geometry" />
        </mxCell>
        <mxCell id="gFz-W14YJBDqkf8OOEzb-81" value="" style="group" parent="1" vertex="1" connectable="0">
          <mxGeometry x="10" y="-400" width="1030" height="130" as="geometry" />
        </mxCell>
        <mxCell id="gFz-W14YJBDqkf8OOEzb-53" value="Product" style="whiteSpace=wrap;html=1;align=center;" parent="gFz-W14YJBDqkf8OOEzb-81" vertex="1">
          <mxGeometry y="80" width="100" height="40" as="geometry" />
        </mxCell>
        <mxCell id="gFz-W14YJBDqkf8OOEzb-54" value="Cart" style="whiteSpace=wrap;html=1;align=center;" parent="gFz-W14YJBDqkf8OOEzb-81" vertex="1">
          <mxGeometry x="320" y="80" width="100" height="40" as="geometry" />
        </mxCell>
        <mxCell id="gFz-W14YJBDqkf8OOEzb-55" value="Thêm giỏ hàng" style="shape=rhombus;perimeter=rhombusPerimeter;whiteSpace=wrap;html=1;align=center;" parent="gFz-W14YJBDqkf8OOEzb-81" vertex="1">
          <mxGeometry x="150" y="70" width="120" height="60" as="geometry" />
        </mxCell>
        <mxCell id="gFz-W14YJBDqkf8OOEzb-56" value="" style="endArrow=none;html=1;rounded=0;exitX=1;exitY=0.5;exitDx=0;exitDy=0;entryX=0;entryY=0.5;entryDx=0;entryDy=0;" parent="gFz-W14YJBDqkf8OOEzb-81" source="gFz-W14YJBDqkf8OOEzb-53" target="gFz-W14YJBDqkf8OOEzb-55" edge="1">
          <mxGeometry relative="1" as="geometry">
            <mxPoint x="140" y="250" as="sourcePoint" />
            <mxPoint x="300" y="250" as="targetPoint" />
          </mxGeometry>
        </mxCell>
        <mxCell id="gFz-W14YJBDqkf8OOEzb-57" value="" style="endArrow=none;html=1;rounded=0;exitX=1;exitY=0.5;exitDx=0;exitDy=0;entryX=0;entryY=0.5;entryDx=0;entryDy=0;" parent="gFz-W14YJBDqkf8OOEzb-81" source="gFz-W14YJBDqkf8OOEzb-55" target="gFz-W14YJBDqkf8OOEzb-54" edge="1">
          <mxGeometry relative="1" as="geometry">
            <mxPoint x="140" y="250" as="sourcePoint" />
            <mxPoint x="300" y="250" as="targetPoint" />
          </mxGeometry>
        </mxCell>
        <mxCell id="gFz-W14YJBDqkf8OOEzb-58" value="(0,n)" style="text;strokeColor=none;fillColor=none;spacingLeft=4;spacingRight=4;overflow=hidden;rotatable=0;points=[[0,0.5],[1,0.5]];portConstraint=eastwest;fontSize=12;" parent="gFz-W14YJBDqkf8OOEzb-81" vertex="1">
          <mxGeometry x="100" y="70" width="40" height="30" as="geometry" />
        </mxCell>
        <mxCell id="gFz-W14YJBDqkf8OOEzb-59" value="(0,n)" style="text;strokeColor=none;fillColor=none;spacingLeft=4;spacingRight=4;overflow=hidden;rotatable=0;points=[[0,0.5],[1,0.5]];portConstraint=eastwest;fontSize=12;" parent="gFz-W14YJBDqkf8OOEzb-81" vertex="1">
          <mxGeometry x="280" y="70" width="40" height="30" as="geometry" />
        </mxCell>
        <mxCell id="gFz-W14YJBDqkf8OOEzb-61" value="Soluong" style="ellipse;whiteSpace=wrap;html=1;align=center;" parent="gFz-W14YJBDqkf8OOEzb-81" vertex="1">
          <mxGeometry x="110" width="100" height="40" as="geometry" />
        </mxCell>
        <mxCell id="gFz-W14YJBDqkf8OOEzb-62" value="Giatien" style="ellipse;whiteSpace=wrap;html=1;align=center;" parent="gFz-W14YJBDqkf8OOEzb-81" vertex="1">
          <mxGeometry x="220" width="100" height="40" as="geometry" />
        </mxCell>
        <mxCell id="gFz-W14YJBDqkf8OOEzb-63" value="" style="endArrow=none;html=1;rounded=0;exitX=0.5;exitY=1;exitDx=0;exitDy=0;entryX=0;entryY=0;entryDx=0;entryDy=0;" parent="gFz-W14YJBDqkf8OOEzb-81" source="gFz-W14YJBDqkf8OOEzb-61" target="gFz-W14YJBDqkf8OOEzb-55" edge="1">
          <mxGeometry relative="1" as="geometry">
            <mxPoint x="140" y="50" as="sourcePoint" />
            <mxPoint x="300" y="50" as="targetPoint" />
          </mxGeometry>
        </mxCell>
        <mxCell id="gFz-W14YJBDqkf8OOEzb-64" value="" style="endArrow=none;html=1;rounded=0;entryX=0.5;entryY=1;entryDx=0;entryDy=0;exitX=1;exitY=0;exitDx=0;exitDy=0;" parent="gFz-W14YJBDqkf8OOEzb-81" source="gFz-W14YJBDqkf8OOEzb-55" target="gFz-W14YJBDqkf8OOEzb-62" edge="1">
          <mxGeometry relative="1" as="geometry">
            <mxPoint x="140" y="50" as="sourcePoint" />
            <mxPoint x="300" y="50" as="targetPoint" />
          </mxGeometry>
        </mxCell>
        <mxCell id="gFz-W14YJBDqkf8OOEzb-65" value="User" style="whiteSpace=wrap;html=1;align=center;" parent="gFz-W14YJBDqkf8OOEzb-81" vertex="1">
          <mxGeometry x="630" y="80" width="100" height="40" as="geometry" />
        </mxCell>
        <mxCell id="gFz-W14YJBDqkf8OOEzb-66" value="Của" style="shape=rhombus;perimeter=rhombusPerimeter;whiteSpace=wrap;html=1;align=center;" parent="gFz-W14YJBDqkf8OOEzb-81" vertex="1">
          <mxGeometry x="470" y="70" width="120" height="60" as="geometry" />
        </mxCell>
        <mxCell id="gFz-W14YJBDqkf8OOEzb-67" value="" style="endArrow=none;html=1;rounded=0;exitX=1;exitY=0.5;exitDx=0;exitDy=0;entryX=0;entryY=0.5;entryDx=0;entryDy=0;" parent="gFz-W14YJBDqkf8OOEzb-81" source="gFz-W14YJBDqkf8OOEzb-54" target="gFz-W14YJBDqkf8OOEzb-66" edge="1">
          <mxGeometry relative="1" as="geometry">
            <mxPoint x="140" y="50" as="sourcePoint" />
            <mxPoint x="300" y="50" as="targetPoint" />
          </mxGeometry>
        </mxCell>
        <mxCell id="gFz-W14YJBDqkf8OOEzb-68" value="" style="endArrow=none;html=1;rounded=0;exitX=0;exitY=0.5;exitDx=0;exitDy=0;entryX=1;entryY=0.5;entryDx=0;entryDy=0;" parent="gFz-W14YJBDqkf8OOEzb-81" source="gFz-W14YJBDqkf8OOEzb-65" target="gFz-W14YJBDqkf8OOEzb-66" edge="1">
          <mxGeometry relative="1" as="geometry">
            <mxPoint x="430" y="110" as="sourcePoint" />
            <mxPoint x="480" y="110" as="targetPoint" />
          </mxGeometry>
        </mxCell>
        <mxCell id="gFz-W14YJBDqkf8OOEzb-69" value="(1,1)" style="text;strokeColor=none;fillColor=none;spacingLeft=4;spacingRight=4;overflow=hidden;rotatable=0;points=[[0,0.5],[1,0.5]];portConstraint=eastwest;fontSize=12;" parent="gFz-W14YJBDqkf8OOEzb-81" vertex="1">
          <mxGeometry x="420" y="70" width="40" height="30" as="geometry" />
        </mxCell>
        <mxCell id="gFz-W14YJBDqkf8OOEzb-70" value="(1,1)" style="text;strokeColor=none;fillColor=none;spacingLeft=4;spacingRight=4;overflow=hidden;rotatable=0;points=[[0,0.5],[1,0.5]];portConstraint=eastwest;fontSize=12;" parent="gFz-W14YJBDqkf8OOEzb-81" vertex="1">
          <mxGeometry x="590" y="70" width="40" height="30" as="geometry" />
        </mxCell>
        <mxCell id="gFz-W14YJBDqkf8OOEzb-71" value="Order" style="whiteSpace=wrap;html=1;align=center;" parent="gFz-W14YJBDqkf8OOEzb-81" vertex="1">
          <mxGeometry x="930" y="80" width="100" height="40" as="geometry" />
        </mxCell>
        <mxCell id="gFz-W14YJBDqkf8OOEzb-72" value="Đặt hàng" style="shape=rhombus;perimeter=rhombusPerimeter;whiteSpace=wrap;html=1;align=center;" parent="gFz-W14YJBDqkf8OOEzb-81" vertex="1">
          <mxGeometry x="770" y="70" width="120" height="60" as="geometry" />
        </mxCell>
        <mxCell id="gFz-W14YJBDqkf8OOEzb-73" value="" style="endArrow=none;html=1;rounded=0;exitX=1;exitY=0.5;exitDx=0;exitDy=0;entryX=0;entryY=0.5;entryDx=0;entryDy=0;" parent="gFz-W14YJBDqkf8OOEzb-81" source="gFz-W14YJBDqkf8OOEzb-65" target="gFz-W14YJBDqkf8OOEzb-72" edge="1">
          <mxGeometry relative="1" as="geometry">
            <mxPoint x="510" y="50" as="sourcePoint" />
            <mxPoint x="670" y="50" as="targetPoint" />
          </mxGeometry>
        </mxCell>
        <mxCell id="gFz-W14YJBDqkf8OOEzb-74" value="" style="endArrow=none;html=1;rounded=0;exitX=0;exitY=0.5;exitDx=0;exitDy=0;entryX=1;entryY=0.5;entryDx=0;entryDy=0;" parent="gFz-W14YJBDqkf8OOEzb-81" source="gFz-W14YJBDqkf8OOEzb-71" target="gFz-W14YJBDqkf8OOEzb-72" edge="1">
          <mxGeometry relative="1" as="geometry">
            <mxPoint x="510" y="50" as="sourcePoint" />
            <mxPoint x="670" y="50" as="targetPoint" />
          </mxGeometry>
        </mxCell>
        <mxCell id="gFz-W14YJBDqkf8OOEzb-75" value="(0,n)" style="text;strokeColor=none;fillColor=none;spacingLeft=4;spacingRight=4;overflow=hidden;rotatable=0;points=[[0,0.5],[1,0.5]];portConstraint=eastwest;fontSize=12;" parent="gFz-W14YJBDqkf8OOEzb-81" vertex="1">
          <mxGeometry x="730" y="70" width="40" height="30" as="geometry" />
        </mxCell>
        <mxCell id="gFz-W14YJBDqkf8OOEzb-76" value="(1,1)" style="text;strokeColor=none;fillColor=none;spacingLeft=4;spacingRight=4;overflow=hidden;rotatable=0;points=[[0,0.5],[1,0.5]];portConstraint=eastwest;fontSize=12;" parent="gFz-W14YJBDqkf8OOEzb-81" vertex="1">
          <mxGeometry x="890" y="70" width="40" height="30" as="geometry" />
        </mxCell>
        <mxCell id="gFz-W14YJBDqkf8OOEzb-82" value="Mô hình ERM lý thuyết" style="text;strokeColor=#b85450;fillColor=#f8cecc;spacingLeft=4;spacingRight=4;overflow=hidden;rotatable=0;points=[[0,0.5],[1,0.5]];portConstraint=eastwest;fontSize=12;fontStyle=1" parent="1" vertex="1">
          <mxGeometry x="-170" y="-340" width="140" height="30" as="geometry" />
        </mxCell>
        <mxCell id="gFz-W14YJBDqkf8OOEzb-84" value="" style="group" parent="1" vertex="1" connectable="0">
          <mxGeometry x="340" y="-180" width="1030" height="130" as="geometry" />
        </mxCell>
        <mxCell id="gFz-W14YJBDqkf8OOEzb-85" value="CartItem" style="whiteSpace=wrap;html=1;align=center;" parent="gFz-W14YJBDqkf8OOEzb-84" vertex="1">
          <mxGeometry y="80" width="100" height="40" as="geometry" />
        </mxCell>
        <mxCell id="gFz-W14YJBDqkf8OOEzb-86" value="Cart" style="whiteSpace=wrap;html=1;align=center;" parent="gFz-W14YJBDqkf8OOEzb-84" vertex="1">
          <mxGeometry x="320" y="80" width="100" height="40" as="geometry" />
        </mxCell>
        <mxCell id="gFz-W14YJBDqkf8OOEzb-87" value="Thuộc" style="shape=rhombus;perimeter=rhombusPerimeter;whiteSpace=wrap;html=1;align=center;" parent="gFz-W14YJBDqkf8OOEzb-84" vertex="1">
          <mxGeometry x="150" y="70" width="120" height="60" as="geometry" />
        </mxCell>
        <mxCell id="gFz-W14YJBDqkf8OOEzb-88" value="" style="endArrow=none;html=1;rounded=0;exitX=1;exitY=0.5;exitDx=0;exitDy=0;entryX=0;entryY=0.5;entryDx=0;entryDy=0;" parent="gFz-W14YJBDqkf8OOEzb-84" source="gFz-W14YJBDqkf8OOEzb-85" target="gFz-W14YJBDqkf8OOEzb-87" edge="1">
          <mxGeometry relative="1" as="geometry">
            <mxPoint x="140" y="250" as="sourcePoint" />
            <mxPoint x="300" y="250" as="targetPoint" />
          </mxGeometry>
        </mxCell>
        <mxCell id="gFz-W14YJBDqkf8OOEzb-89" value="" style="endArrow=none;html=1;rounded=0;exitX=1;exitY=0.5;exitDx=0;exitDy=0;entryX=0;entryY=0.5;entryDx=0;entryDy=0;" parent="gFz-W14YJBDqkf8OOEzb-84" source="gFz-W14YJBDqkf8OOEzb-87" target="gFz-W14YJBDqkf8OOEzb-86" edge="1">
          <mxGeometry relative="1" as="geometry">
            <mxPoint x="140" y="250" as="sourcePoint" />
            <mxPoint x="300" y="250" as="targetPoint" />
          </mxGeometry>
        </mxCell>
        <mxCell id="gFz-W14YJBDqkf8OOEzb-90" value="(0,1)" style="text;strokeColor=none;fillColor=none;spacingLeft=4;spacingRight=4;overflow=hidden;rotatable=0;points=[[0,0.5],[1,0.5]];portConstraint=eastwest;fontSize=12;" parent="gFz-W14YJBDqkf8OOEzb-84" vertex="1">
          <mxGeometry x="100" y="70" width="40" height="30" as="geometry" />
        </mxCell>
        <mxCell id="gFz-W14YJBDqkf8OOEzb-91" value="(0,n)" style="text;strokeColor=none;fillColor=none;spacingLeft=4;spacingRight=4;overflow=hidden;rotatable=0;points=[[0,0.5],[1,0.5]];portConstraint=eastwest;fontSize=12;" parent="gFz-W14YJBDqkf8OOEzb-84" vertex="1">
          <mxGeometry x="280" y="70" width="40" height="30" as="geometry" />
        </mxCell>
        <mxCell id="gFz-W14YJBDqkf8OOEzb-96" value="User" style="whiteSpace=wrap;html=1;align=center;" parent="gFz-W14YJBDqkf8OOEzb-84" vertex="1">
          <mxGeometry x="630" y="80" width="100" height="40" as="geometry" />
        </mxCell>
        <mxCell id="gFz-W14YJBDqkf8OOEzb-97" value="Của" style="shape=rhombus;perimeter=rhombusPerimeter;whiteSpace=wrap;html=1;align=center;" parent="gFz-W14YJBDqkf8OOEzb-84" vertex="1">
          <mxGeometry x="470" y="70" width="120" height="60" as="geometry" />
        </mxCell>
        <mxCell id="gFz-W14YJBDqkf8OOEzb-98" value="" style="endArrow=none;html=1;rounded=0;exitX=1;exitY=0.5;exitDx=0;exitDy=0;entryX=0;entryY=0.5;entryDx=0;entryDy=0;" parent="gFz-W14YJBDqkf8OOEzb-84" source="gFz-W14YJBDqkf8OOEzb-86" target="gFz-W14YJBDqkf8OOEzb-97" edge="1">
          <mxGeometry relative="1" as="geometry">
            <mxPoint x="140" y="50" as="sourcePoint" />
            <mxPoint x="300" y="50" as="targetPoint" />
          </mxGeometry>
        </mxCell>
        <mxCell id="gFz-W14YJBDqkf8OOEzb-99" value="" style="endArrow=none;html=1;rounded=0;exitX=0;exitY=0.5;exitDx=0;exitDy=0;entryX=1;entryY=0.5;entryDx=0;entryDy=0;" parent="gFz-W14YJBDqkf8OOEzb-84" source="gFz-W14YJBDqkf8OOEzb-96" target="gFz-W14YJBDqkf8OOEzb-97" edge="1">
          <mxGeometry relative="1" as="geometry">
            <mxPoint x="430" y="110" as="sourcePoint" />
            <mxPoint x="480" y="110" as="targetPoint" />
          </mxGeometry>
        </mxCell>
        <mxCell id="gFz-W14YJBDqkf8OOEzb-100" value="(1,1)" style="text;strokeColor=none;fillColor=none;spacingLeft=4;spacingRight=4;overflow=hidden;rotatable=0;points=[[0,0.5],[1,0.5]];portConstraint=eastwest;fontSize=12;" parent="gFz-W14YJBDqkf8OOEzb-84" vertex="1">
          <mxGeometry x="420" y="70" width="40" height="30" as="geometry" />
        </mxCell>
        <mxCell id="gFz-W14YJBDqkf8OOEzb-101" value="(1,1)" style="text;strokeColor=none;fillColor=none;spacingLeft=4;spacingRight=4;overflow=hidden;rotatable=0;points=[[0,0.5],[1,0.5]];portConstraint=eastwest;fontSize=12;" parent="gFz-W14YJBDqkf8OOEzb-84" vertex="1">
          <mxGeometry x="590" y="70" width="40" height="30" as="geometry" />
        </mxCell>
        <mxCell id="gFz-W14YJBDqkf8OOEzb-102" value="Order" style="whiteSpace=wrap;html=1;align=center;" parent="gFz-W14YJBDqkf8OOEzb-84" vertex="1">
          <mxGeometry x="930" y="80" width="100" height="40" as="geometry" />
        </mxCell>
        <mxCell id="gFz-W14YJBDqkf8OOEzb-103" value="Đặt hàng" style="shape=rhombus;perimeter=rhombusPerimeter;whiteSpace=wrap;html=1;align=center;" parent="gFz-W14YJBDqkf8OOEzb-84" vertex="1">
          <mxGeometry x="770" y="70" width="120" height="60" as="geometry" />
        </mxCell>
        <mxCell id="gFz-W14YJBDqkf8OOEzb-104" value="" style="endArrow=none;html=1;rounded=0;exitX=1;exitY=0.5;exitDx=0;exitDy=0;entryX=0;entryY=0.5;entryDx=0;entryDy=0;" parent="gFz-W14YJBDqkf8OOEzb-84" source="gFz-W14YJBDqkf8OOEzb-96" target="gFz-W14YJBDqkf8OOEzb-103" edge="1">
          <mxGeometry relative="1" as="geometry">
            <mxPoint x="510" y="50" as="sourcePoint" />
            <mxPoint x="670" y="50" as="targetPoint" />
          </mxGeometry>
        </mxCell>
        <mxCell id="gFz-W14YJBDqkf8OOEzb-105" value="" style="endArrow=none;html=1;rounded=0;exitX=0;exitY=0.5;exitDx=0;exitDy=0;entryX=1;entryY=0.5;entryDx=0;entryDy=0;" parent="gFz-W14YJBDqkf8OOEzb-84" source="gFz-W14YJBDqkf8OOEzb-102" target="gFz-W14YJBDqkf8OOEzb-103" edge="1">
          <mxGeometry relative="1" as="geometry">
            <mxPoint x="510" y="50" as="sourcePoint" />
            <mxPoint x="670" y="50" as="targetPoint" />
          </mxGeometry>
        </mxCell>
        <mxCell id="gFz-W14YJBDqkf8OOEzb-106" value="(0,n)" style="text;strokeColor=none;fillColor=none;spacingLeft=4;spacingRight=4;overflow=hidden;rotatable=0;points=[[0,0.5],[1,0.5]];portConstraint=eastwest;fontSize=12;" parent="gFz-W14YJBDqkf8OOEzb-84" vertex="1">
          <mxGeometry x="730" y="70" width="40" height="30" as="geometry" />
        </mxCell>
        <mxCell id="gFz-W14YJBDqkf8OOEzb-107" value="(1,1)" style="text;strokeColor=none;fillColor=none;spacingLeft=4;spacingRight=4;overflow=hidden;rotatable=0;points=[[0,0.5],[1,0.5]];portConstraint=eastwest;fontSize=12;" parent="gFz-W14YJBDqkf8OOEzb-84" vertex="1">
          <mxGeometry x="890" y="70" width="40" height="30" as="geometry" />
        </mxCell>
        <mxCell id="gFz-W14YJBDqkf8OOEzb-152" value="Giatien" style="ellipse;whiteSpace=wrap;html=1;align=center;" parent="gFz-W14YJBDqkf8OOEzb-84" vertex="1">
          <mxGeometry x="60" width="100" height="40" as="geometry" />
        </mxCell>
        <mxCell id="gFz-W14YJBDqkf8OOEzb-153" value="Soluong" style="ellipse;whiteSpace=wrap;html=1;align=center;" parent="gFz-W14YJBDqkf8OOEzb-84" vertex="1">
          <mxGeometry x="-60" width="100" height="40" as="geometry" />
        </mxCell>
        <mxCell id="gFz-W14YJBDqkf8OOEzb-155" value="" style="endArrow=none;html=1;rounded=0;exitX=0.5;exitY=1;exitDx=0;exitDy=0;entryX=0.5;entryY=0;entryDx=0;entryDy=0;" parent="gFz-W14YJBDqkf8OOEzb-84" source="gFz-W14YJBDqkf8OOEzb-153" target="gFz-W14YJBDqkf8OOEzb-85" edge="1">
          <mxGeometry relative="1" as="geometry">
            <mxPoint x="-20" y="120" as="sourcePoint" />
            <mxPoint x="140" y="120" as="targetPoint" />
          </mxGeometry>
        </mxCell>
        <mxCell id="gFz-W14YJBDqkf8OOEzb-156" value="" style="endArrow=none;html=1;rounded=0;exitX=0.5;exitY=1;exitDx=0;exitDy=0;entryX=0.5;entryY=0;entryDx=0;entryDy=0;" parent="gFz-W14YJBDqkf8OOEzb-84" source="gFz-W14YJBDqkf8OOEzb-152" target="gFz-W14YJBDqkf8OOEzb-85" edge="1">
          <mxGeometry relative="1" as="geometry">
            <mxPoint x="-20" y="120" as="sourcePoint" />
            <mxPoint x="140" y="120" as="targetPoint" />
          </mxGeometry>
        </mxCell>
        <mxCell id="gFz-W14YJBDqkf8OOEzb-113" value="Thực thể mới: CartItem" style="text;strokeColor=none;fillColor=none;spacingLeft=4;spacingRight=4;overflow=hidden;rotatable=0;points=[[0,0.5],[1,0.5]];portConstraint=eastwest;fontSize=12;" parent="1" vertex="1">
          <mxGeometry x="150" y="-270" width="140" height="30" as="geometry" />
        </mxCell>
        <mxCell id="gFz-W14YJBDqkf8OOEzb-142" value="Product" style="whiteSpace=wrap;html=1;align=center;" parent="1" vertex="1">
          <mxGeometry x="10" y="-100" width="100" height="40" as="geometry" />
        </mxCell>
        <mxCell id="gFz-W14YJBDqkf8OOEzb-143" value="Thêm" style="shape=rhombus;perimeter=rhombusPerimeter;whiteSpace=wrap;html=1;align=center;" parent="1" vertex="1">
          <mxGeometry x="160" y="-110" width="120" height="60" as="geometry" />
        </mxCell>
        <mxCell id="gFz-W14YJBDqkf8OOEzb-144" value="" style="endArrow=none;html=1;rounded=0;exitX=1;exitY=0.5;exitDx=0;exitDy=0;entryX=0;entryY=0.5;entryDx=0;entryDy=0;" parent="1" source="gFz-W14YJBDqkf8OOEzb-142" target="gFz-W14YJBDqkf8OOEzb-143" edge="1">
          <mxGeometry relative="1" as="geometry">
            <mxPoint x="320" y="-60" as="sourcePoint" />
            <mxPoint x="480" y="-60" as="targetPoint" />
          </mxGeometry>
        </mxCell>
        <mxCell id="gFz-W14YJBDqkf8OOEzb-145" value="" style="endArrow=none;html=1;rounded=0;exitX=0;exitY=0.5;exitDx=0;exitDy=0;entryX=1;entryY=0.5;entryDx=0;entryDy=0;" parent="1" source="gFz-W14YJBDqkf8OOEzb-85" target="gFz-W14YJBDqkf8OOEzb-143" edge="1">
          <mxGeometry relative="1" as="geometry">
            <mxPoint x="120" y="-69.99999999999977" as="sourcePoint" />
            <mxPoint x="170" y="-69.99999999999977" as="targetPoint" />
          </mxGeometry>
        </mxCell>
        <mxCell id="gFz-W14YJBDqkf8OOEzb-150" value="(0,n)" style="text;strokeColor=none;fillColor=none;spacingLeft=4;spacingRight=4;overflow=hidden;rotatable=0;points=[[0,0.5],[1,0.5]];portConstraint=eastwest;fontSize=12;" parent="1" vertex="1">
          <mxGeometry x="110" y="-110" width="40" height="30" as="geometry" />
        </mxCell>
        <mxCell id="gFz-W14YJBDqkf8OOEzb-151" value="(1,1)" style="text;strokeColor=none;fillColor=none;spacingLeft=4;spacingRight=4;overflow=hidden;rotatable=0;points=[[0,0.5],[1,0.5]];portConstraint=eastwest;fontSize=12;" parent="1" vertex="1">
          <mxGeometry x="300" y="-110" width="40" height="30" as="geometry" />
        </mxCell>
        <mxCell id="gFz-W14YJBDqkf8OOEzb-157" value="Product" style="shape=table;startSize=30;container=1;collapsible=1;childLayout=tableLayout;fixedRows=1;rowLines=0;fontStyle=1;align=center;resizeLast=1;" parent="1" vertex="1">
          <mxGeometry x="30" y="20" width="180" height="310" as="geometry" />
        </mxCell>
        <mxCell id="gFz-W14YJBDqkf8OOEzb-158" value="" style="shape=partialRectangle;collapsible=0;dropTarget=0;pointerEvents=0;fillColor=none;top=0;left=0;bottom=1;right=0;points=[[0,0.5],[1,0.5]];portConstraint=eastwest;" parent="gFz-W14YJBDqkf8OOEzb-157" vertex="1">
          <mxGeometry y="30" width="180" height="30" as="geometry" />
        </mxCell>
        <mxCell id="gFz-W14YJBDqkf8OOEzb-159" value="PK" style="shape=partialRectangle;connectable=0;fillColor=none;top=0;left=0;bottom=0;right=0;fontStyle=1;overflow=hidden;" parent="gFz-W14YJBDqkf8OOEzb-158" vertex="1">
          <mxGeometry width="30" height="30" as="geometry">
            <mxRectangle width="30" height="30" as="alternateBounds" />
          </mxGeometry>
        </mxCell>
        <mxCell id="gFz-W14YJBDqkf8OOEzb-160" value="ProductId" style="shape=partialRectangle;connectable=0;fillColor=none;top=0;left=0;bottom=0;right=0;align=left;spacingLeft=6;fontStyle=5;overflow=hidden;" parent="gFz-W14YJBDqkf8OOEzb-158" vertex="1">
          <mxGeometry x="30" width="150" height="30" as="geometry">
            <mxRectangle width="150" height="30" as="alternateBounds" />
          </mxGeometry>
        </mxCell>
        <mxCell id="gFz-W14YJBDqkf8OOEzb-161" value="" style="shape=partialRectangle;collapsible=0;dropTarget=0;pointerEvents=0;fillColor=none;top=0;left=0;bottom=0;right=0;points=[[0,0.5],[1,0.5]];portConstraint=eastwest;" parent="gFz-W14YJBDqkf8OOEzb-157" vertex="1">
          <mxGeometry y="60" width="180" height="30" as="geometry" />
        </mxCell>
        <mxCell id="gFz-W14YJBDqkf8OOEzb-162" value="" style="shape=partialRectangle;connectable=0;fillColor=none;top=0;left=0;bottom=0;right=0;editable=1;overflow=hidden;" parent="gFz-W14YJBDqkf8OOEzb-161" vertex="1">
          <mxGeometry width="30" height="30" as="geometry">
            <mxRectangle width="30" height="30" as="alternateBounds" />
          </mxGeometry>
        </mxCell>
        <mxCell id="gFz-W14YJBDqkf8OOEzb-163" value="name" style="shape=partialRectangle;connectable=0;fillColor=none;top=0;left=0;bottom=0;right=0;align=left;spacingLeft=6;overflow=hidden;" parent="gFz-W14YJBDqkf8OOEzb-161" vertex="1">
          <mxGeometry x="30" width="150" height="30" as="geometry">
            <mxRectangle width="150" height="30" as="alternateBounds" />
          </mxGeometry>
        </mxCell>
        <mxCell id="gFz-W14YJBDqkf8OOEzb-164" value="" style="shape=partialRectangle;collapsible=0;dropTarget=0;pointerEvents=0;fillColor=none;top=0;left=0;bottom=0;right=0;points=[[0,0.5],[1,0.5]];portConstraint=eastwest;" parent="gFz-W14YJBDqkf8OOEzb-157" vertex="1">
          <mxGeometry y="90" width="180" height="30" as="geometry" />
        </mxCell>
        <mxCell id="gFz-W14YJBDqkf8OOEzb-165" value="" style="shape=partialRectangle;connectable=0;fillColor=none;top=0;left=0;bottom=0;right=0;editable=1;overflow=hidden;" parent="gFz-W14YJBDqkf8OOEzb-164" vertex="1">
          <mxGeometry width="30" height="30" as="geometry">
            <mxRectangle width="30" height="30" as="alternateBounds" />
          </mxGeometry>
        </mxCell>
        <mxCell id="gFz-W14YJBDqkf8OOEzb-166" value="price_old" style="shape=partialRectangle;connectable=0;fillColor=none;top=0;left=0;bottom=0;right=0;align=left;spacingLeft=6;overflow=hidden;" parent="gFz-W14YJBDqkf8OOEzb-164" vertex="1">
          <mxGeometry x="30" width="150" height="30" as="geometry">
            <mxRectangle width="150" height="30" as="alternateBounds" />
          </mxGeometry>
        </mxCell>
        <mxCell id="gFz-W14YJBDqkf8OOEzb-170" value="" style="shape=partialRectangle;collapsible=0;dropTarget=0;pointerEvents=0;fillColor=none;top=0;left=0;bottom=0;right=0;points=[[0,0.5],[1,0.5]];portConstraint=eastwest;" parent="gFz-W14YJBDqkf8OOEzb-157" vertex="1">
          <mxGeometry y="120" width="180" height="30" as="geometry" />
        </mxCell>
        <mxCell id="gFz-W14YJBDqkf8OOEzb-171" value="" style="shape=partialRectangle;connectable=0;fillColor=none;top=0;left=0;bottom=0;right=0;editable=1;overflow=hidden;" parent="gFz-W14YJBDqkf8OOEzb-170" vertex="1">
          <mxGeometry width="30" height="30" as="geometry">
            <mxRectangle width="30" height="30" as="alternateBounds" />
          </mxGeometry>
        </mxCell>
        <mxCell id="gFz-W14YJBDqkf8OOEzb-172" value="price" style="shape=partialRectangle;connectable=0;fillColor=none;top=0;left=0;bottom=0;right=0;align=left;spacingLeft=6;overflow=hidden;" parent="gFz-W14YJBDqkf8OOEzb-170" vertex="1">
          <mxGeometry x="30" width="150" height="30" as="geometry">
            <mxRectangle width="150" height="30" as="alternateBounds" />
          </mxGeometry>
        </mxCell>
        <mxCell id="gFz-W14YJBDqkf8OOEzb-167" value="" style="shape=partialRectangle;collapsible=0;dropTarget=0;pointerEvents=0;fillColor=none;top=0;left=0;bottom=0;right=0;points=[[0,0.5],[1,0.5]];portConstraint=eastwest;" parent="gFz-W14YJBDqkf8OOEzb-157" vertex="1">
          <mxGeometry y="150" width="180" height="30" as="geometry" />
        </mxCell>
        <mxCell id="gFz-W14YJBDqkf8OOEzb-168" value="" style="shape=partialRectangle;connectable=0;fillColor=none;top=0;left=0;bottom=0;right=0;editable=1;overflow=hidden;" parent="gFz-W14YJBDqkf8OOEzb-167" vertex="1">
          <mxGeometry width="30" height="30" as="geometry">
            <mxRectangle width="30" height="30" as="alternateBounds" />
          </mxGeometry>
        </mxCell>
        <mxCell id="gFz-W14YJBDqkf8OOEzb-169" value="colorList" style="shape=partialRectangle;connectable=0;fillColor=none;top=0;left=0;bottom=0;right=0;align=left;spacingLeft=6;overflow=hidden;" parent="gFz-W14YJBDqkf8OOEzb-167" vertex="1">
          <mxGeometry x="30" width="150" height="30" as="geometry">
            <mxRectangle width="150" height="30" as="alternateBounds" />
          </mxGeometry>
        </mxCell>
        <mxCell id="gFz-W14YJBDqkf8OOEzb-173" value="" style="shape=partialRectangle;collapsible=0;dropTarget=0;pointerEvents=0;fillColor=none;top=0;left=0;bottom=0;right=0;points=[[0,0.5],[1,0.5]];portConstraint=eastwest;" parent="gFz-W14YJBDqkf8OOEzb-157" vertex="1">
          <mxGeometry y="180" width="180" height="30" as="geometry" />
        </mxCell>
        <mxCell id="gFz-W14YJBDqkf8OOEzb-174" value="" style="shape=partialRectangle;connectable=0;fillColor=none;top=0;left=0;bottom=0;right=0;editable=1;overflow=hidden;" parent="gFz-W14YJBDqkf8OOEzb-173" vertex="1">
          <mxGeometry width="30" height="30" as="geometry">
            <mxRectangle width="30" height="30" as="alternateBounds" />
          </mxGeometry>
        </mxCell>
        <mxCell id="gFz-W14YJBDqkf8OOEzb-175" value="imgList" style="shape=partialRectangle;connectable=0;fillColor=none;top=0;left=0;bottom=0;right=0;align=left;spacingLeft=6;overflow=hidden;" parent="gFz-W14YJBDqkf8OOEzb-173" vertex="1">
          <mxGeometry x="30" width="150" height="30" as="geometry">
            <mxRectangle width="150" height="30" as="alternateBounds" />
          </mxGeometry>
        </mxCell>
        <mxCell id="gFz-W14YJBDqkf8OOEzb-176" value="" style="shape=partialRectangle;collapsible=0;dropTarget=0;pointerEvents=0;fillColor=none;top=0;left=0;bottom=0;right=0;points=[[0,0.5],[1,0.5]];portConstraint=eastwest;" parent="gFz-W14YJBDqkf8OOEzb-157" vertex="1">
          <mxGeometry y="210" width="180" height="30" as="geometry" />
        </mxCell>
        <mxCell id="gFz-W14YJBDqkf8OOEzb-177" value="" style="shape=partialRectangle;connectable=0;fillColor=none;top=0;left=0;bottom=0;right=0;editable=1;overflow=hidden;" parent="gFz-W14YJBDqkf8OOEzb-176" vertex="1">
          <mxGeometry width="30" height="30" as="geometry">
            <mxRectangle width="30" height="30" as="alternateBounds" />
          </mxGeometry>
        </mxCell>
        <mxCell id="gFz-W14YJBDqkf8OOEzb-178" value="ram" style="shape=partialRectangle;connectable=0;fillColor=none;top=0;left=0;bottom=0;right=0;align=left;spacingLeft=6;overflow=hidden;" parent="gFz-W14YJBDqkf8OOEzb-176" vertex="1">
          <mxGeometry x="30" width="150" height="30" as="geometry">
            <mxRectangle width="150" height="30" as="alternateBounds" />
          </mxGeometry>
        </mxCell>
        <mxCell id="gFz-W14YJBDqkf8OOEzb-179" value="" style="shape=partialRectangle;collapsible=0;dropTarget=0;pointerEvents=0;fillColor=none;top=0;left=0;bottom=0;right=0;points=[[0,0.5],[1,0.5]];portConstraint=eastwest;" parent="gFz-W14YJBDqkf8OOEzb-157" vertex="1">
          <mxGeometry y="240" width="180" height="30" as="geometry" />
        </mxCell>
        <mxCell id="gFz-W14YJBDqkf8OOEzb-180" value="" style="shape=partialRectangle;connectable=0;fillColor=none;top=0;left=0;bottom=0;right=0;editable=1;overflow=hidden;" parent="gFz-W14YJBDqkf8OOEzb-179" vertex="1">
          <mxGeometry width="30" height="30" as="geometry">
            <mxRectangle width="30" height="30" as="alternateBounds" />
          </mxGeometry>
        </mxCell>
        <mxCell id="gFz-W14YJBDqkf8OOEzb-181" value="rom" style="shape=partialRectangle;connectable=0;fillColor=none;top=0;left=0;bottom=0;right=0;align=left;spacingLeft=6;overflow=hidden;" parent="gFz-W14YJBDqkf8OOEzb-179" vertex="1">
          <mxGeometry x="30" width="150" height="30" as="geometry">
            <mxRectangle width="150" height="30" as="alternateBounds" />
          </mxGeometry>
        </mxCell>
        <mxCell id="gFz-W14YJBDqkf8OOEzb-182" value="" style="shape=partialRectangle;collapsible=0;dropTarget=0;pointerEvents=0;fillColor=none;top=0;left=0;bottom=0;right=0;points=[[0,0.5],[1,0.5]];portConstraint=eastwest;" parent="gFz-W14YJBDqkf8OOEzb-157" vertex="1">
          <mxGeometry y="270" width="180" height="30" as="geometry" />
        </mxCell>
        <mxCell id="gFz-W14YJBDqkf8OOEzb-183" value="" style="shape=partialRectangle;connectable=0;fillColor=none;top=0;left=0;bottom=0;right=0;editable=1;overflow=hidden;" parent="gFz-W14YJBDqkf8OOEzb-182" vertex="1">
          <mxGeometry width="30" height="30" as="geometry">
            <mxRectangle width="30" height="30" as="alternateBounds" />
          </mxGeometry>
        </mxCell>
        <mxCell id="gFz-W14YJBDqkf8OOEzb-184" value="brand" style="shape=partialRectangle;connectable=0;fillColor=none;top=0;left=0;bottom=0;right=0;align=left;spacingLeft=6;overflow=hidden;" parent="gFz-W14YJBDqkf8OOEzb-182" vertex="1">
          <mxGeometry x="30" width="150" height="30" as="geometry">
            <mxRectangle width="150" height="30" as="alternateBounds" />
          </mxGeometry>
        </mxCell>
        <mxCell id="gFz-W14YJBDqkf8OOEzb-185" value="Mô hình ERM áp dụng" style="text;strokeColor=#6c8ebf;fillColor=#dae8fc;spacingLeft=4;spacingRight=4;overflow=hidden;rotatable=0;points=[[0,0.5],[1,0.5]];portConstraint=eastwest;fontSize=12;fontStyle=1" parent="1" vertex="1">
          <mxGeometry x="-170" y="-120" width="140" height="30" as="geometry" />
        </mxCell>
        <mxCell id="gFz-W14YJBDqkf8OOEzb-186" value="CartItem" style="shape=table;startSize=30;container=1;collapsible=1;childLayout=tableLayout;fixedRows=1;rowLines=0;fontStyle=1;align=center;resizeLast=1;" parent="1" vertex="1">
          <mxGeometry x="324" y="20" width="180" height="239.99999999999977" as="geometry" />
        </mxCell>
        <mxCell id="gFz-W14YJBDqkf8OOEzb-187" value="" style="shape=partialRectangle;collapsible=0;dropTarget=0;pointerEvents=0;fillColor=none;top=0;left=0;bottom=1;right=0;points=[[0,0.5],[1,0.5]];portConstraint=eastwest;" parent="gFz-W14YJBDqkf8OOEzb-186" vertex="1">
          <mxGeometry y="30" width="180" height="30" as="geometry" />
        </mxCell>
        <mxCell id="gFz-W14YJBDqkf8OOEzb-188" value="PK" style="shape=partialRectangle;connectable=0;fillColor=none;top=0;left=0;bottom=0;right=0;fontStyle=1;overflow=hidden;" parent="gFz-W14YJBDqkf8OOEzb-187" vertex="1">
          <mxGeometry width="30" height="30" as="geometry">
            <mxRectangle width="30" height="30" as="alternateBounds" />
          </mxGeometry>
        </mxCell>
        <mxCell id="gFz-W14YJBDqkf8OOEzb-189" value="cardId" style="shape=partialRectangle;connectable=0;fillColor=none;top=0;left=0;bottom=0;right=0;align=left;spacingLeft=6;fontStyle=5;overflow=hidden;" parent="gFz-W14YJBDqkf8OOEzb-187" vertex="1">
          <mxGeometry x="30" width="150" height="30" as="geometry">
            <mxRectangle width="150" height="30" as="alternateBounds" />
          </mxGeometry>
        </mxCell>
        <mxCell id="gFz-W14YJBDqkf8OOEzb-190" value="" style="shape=partialRectangle;collapsible=0;dropTarget=0;pointerEvents=0;fillColor=none;top=0;left=0;bottom=0;right=0;points=[[0,0.5],[1,0.5]];portConstraint=eastwest;" parent="gFz-W14YJBDqkf8OOEzb-186" vertex="1">
          <mxGeometry y="60" width="180" height="40" as="geometry" />
        </mxCell>
        <mxCell id="gFz-W14YJBDqkf8OOEzb-191" value="FK" style="shape=partialRectangle;connectable=0;fillColor=none;top=0;left=0;bottom=0;right=0;editable=1;overflow=hidden;" parent="gFz-W14YJBDqkf8OOEzb-190" vertex="1">
          <mxGeometry width="30" height="40" as="geometry">
            <mxRectangle width="30" height="40" as="alternateBounds" />
          </mxGeometry>
        </mxCell>
        <mxCell id="gFz-W14YJBDqkf8OOEzb-192" value="productId" style="shape=partialRectangle;connectable=0;fillColor=none;top=0;left=0;bottom=0;right=0;align=left;spacingLeft=6;overflow=hidden;" parent="gFz-W14YJBDqkf8OOEzb-190" vertex="1">
          <mxGeometry x="30" width="150" height="40" as="geometry">
            <mxRectangle width="150" height="40" as="alternateBounds" />
          </mxGeometry>
        </mxCell>
        <mxCell id="gFz-W14YJBDqkf8OOEzb-199" value="" style="shape=partialRectangle;collapsible=0;dropTarget=0;pointerEvents=0;fillColor=none;top=0;left=0;bottom=0;right=0;points=[[0,0.5],[1,0.5]];portConstraint=eastwest;" parent="gFz-W14YJBDqkf8OOEzb-186" vertex="1">
          <mxGeometry y="100" width="180" height="40" as="geometry" />
        </mxCell>
        <mxCell id="gFz-W14YJBDqkf8OOEzb-200" value="" style="shape=partialRectangle;connectable=0;fillColor=none;top=0;left=0;bottom=0;right=0;editable=1;overflow=hidden;" parent="gFz-W14YJBDqkf8OOEzb-199" vertex="1">
          <mxGeometry width="30" height="40" as="geometry">
            <mxRectangle width="30" height="40" as="alternateBounds" />
          </mxGeometry>
        </mxCell>
        <mxCell id="gFz-W14YJBDqkf8OOEzb-201" value="productColor" style="shape=partialRectangle;connectable=0;fillColor=none;top=0;left=0;bottom=0;right=0;align=left;spacingLeft=6;overflow=hidden;" parent="gFz-W14YJBDqkf8OOEzb-199" vertex="1">
          <mxGeometry x="30" width="150" height="40" as="geometry">
            <mxRectangle width="150" height="40" as="alternateBounds" />
          </mxGeometry>
        </mxCell>
        <mxCell id="gFz-W14YJBDqkf8OOEzb-202" value="" style="shape=partialRectangle;collapsible=0;dropTarget=0;pointerEvents=0;fillColor=none;top=0;left=0;bottom=0;right=0;points=[[0,0.5],[1,0.5]];portConstraint=eastwest;" parent="gFz-W14YJBDqkf8OOEzb-186" vertex="1">
          <mxGeometry y="140" width="180" height="30" as="geometry" />
        </mxCell>
        <mxCell id="gFz-W14YJBDqkf8OOEzb-203" value="" style="shape=partialRectangle;connectable=0;fillColor=none;top=0;left=0;bottom=0;right=0;editable=1;overflow=hidden;" parent="gFz-W14YJBDqkf8OOEzb-202" vertex="1">
          <mxGeometry width="30" height="30" as="geometry">
            <mxRectangle width="30" height="30" as="alternateBounds" />
          </mxGeometry>
        </mxCell>
        <mxCell id="gFz-W14YJBDqkf8OOEzb-204" value="productImg" style="shape=partialRectangle;connectable=0;fillColor=none;top=0;left=0;bottom=0;right=0;align=left;spacingLeft=6;overflow=hidden;" parent="gFz-W14YJBDqkf8OOEzb-202" vertex="1">
          <mxGeometry x="30" width="150" height="30" as="geometry">
            <mxRectangle width="150" height="30" as="alternateBounds" />
          </mxGeometry>
        </mxCell>
        <mxCell id="gFz-W14YJBDqkf8OOEzb-217" value="" style="shape=partialRectangle;collapsible=0;dropTarget=0;pointerEvents=0;fillColor=none;top=0;left=0;bottom=0;right=0;points=[[0,0.5],[1,0.5]];portConstraint=eastwest;" parent="gFz-W14YJBDqkf8OOEzb-186" vertex="1">
          <mxGeometry y="170" width="180" height="30" as="geometry" />
        </mxCell>
        <mxCell id="gFz-W14YJBDqkf8OOEzb-218" value="" style="shape=partialRectangle;connectable=0;fillColor=none;top=0;left=0;bottom=0;right=0;editable=1;overflow=hidden;" parent="gFz-W14YJBDqkf8OOEzb-217" vertex="1">
          <mxGeometry width="30" height="30" as="geometry">
            <mxRectangle width="30" height="30" as="alternateBounds" />
          </mxGeometry>
        </mxCell>
        <mxCell id="gFz-W14YJBDqkf8OOEzb-219" value="soluong" style="shape=partialRectangle;connectable=0;fillColor=none;top=0;left=0;bottom=0;right=0;align=left;spacingLeft=6;overflow=hidden;" parent="gFz-W14YJBDqkf8OOEzb-217" vertex="1">
          <mxGeometry x="30" width="150" height="30" as="geometry">
            <mxRectangle width="150" height="30" as="alternateBounds" />
          </mxGeometry>
        </mxCell>
        <mxCell id="gFz-W14YJBDqkf8OOEzb-205" value="" style="shape=partialRectangle;collapsible=0;dropTarget=0;pointerEvents=0;fillColor=none;top=0;left=0;bottom=0;right=0;points=[[0,0.5],[1,0.5]];portConstraint=eastwest;" parent="gFz-W14YJBDqkf8OOEzb-186" vertex="1">
          <mxGeometry y="200" width="180" height="30" as="geometry" />
        </mxCell>
        <mxCell id="gFz-W14YJBDqkf8OOEzb-206" value="" style="shape=partialRectangle;connectable=0;fillColor=none;top=0;left=0;bottom=0;right=0;editable=1;overflow=hidden;" parent="gFz-W14YJBDqkf8OOEzb-205" vertex="1">
          <mxGeometry width="30" height="30" as="geometry">
            <mxRectangle width="30" height="30" as="alternateBounds" />
          </mxGeometry>
        </mxCell>
        <mxCell id="gFz-W14YJBDqkf8OOEzb-207" value="total" style="shape=partialRectangle;connectable=0;fillColor=none;top=0;left=0;bottom=0;right=0;align=left;spacingLeft=6;overflow=hidden;" parent="gFz-W14YJBDqkf8OOEzb-205" vertex="1">
          <mxGeometry x="30" width="150" height="30" as="geometry">
            <mxRectangle width="150" height="30" as="alternateBounds" />
          </mxGeometry>
        </mxCell>
        <mxCell id="gFz-W14YJBDqkf8OOEzb-222" value="Cart" style="shape=table;startSize=30;container=1;collapsible=1;childLayout=tableLayout;fixedRows=1;rowLines=0;fontStyle=1;align=center;resizeLast=1;" parent="1" vertex="1">
          <mxGeometry x="630" y="20" width="180" height="90" as="geometry" />
        </mxCell>
        <mxCell id="gFz-W14YJBDqkf8OOEzb-223" value="" style="shape=partialRectangle;collapsible=0;dropTarget=0;pointerEvents=0;fillColor=none;top=0;left=0;bottom=1;right=0;points=[[0,0.5],[1,0.5]];portConstraint=eastwest;" parent="gFz-W14YJBDqkf8OOEzb-222" vertex="1">
          <mxGeometry y="30" width="180" height="30" as="geometry" />
        </mxCell>
        <mxCell id="gFz-W14YJBDqkf8OOEzb-224" value="PK" style="shape=partialRectangle;connectable=0;fillColor=none;top=0;left=0;bottom=0;right=0;fontStyle=1;overflow=hidden;" parent="gFz-W14YJBDqkf8OOEzb-223" vertex="1">
          <mxGeometry width="30" height="30" as="geometry">
            <mxRectangle width="30" height="30" as="alternateBounds" />
          </mxGeometry>
        </mxCell>
        <mxCell id="gFz-W14YJBDqkf8OOEzb-225" value="userID" style="shape=partialRectangle;connectable=0;fillColor=none;top=0;left=0;bottom=0;right=0;align=left;spacingLeft=6;fontStyle=5;overflow=hidden;" parent="gFz-W14YJBDqkf8OOEzb-223" vertex="1">
          <mxGeometry x="30" width="150" height="30" as="geometry">
            <mxRectangle width="150" height="30" as="alternateBounds" />
          </mxGeometry>
        </mxCell>
        <mxCell id="gFz-W14YJBDqkf8OOEzb-226" value="" style="shape=partialRectangle;collapsible=0;dropTarget=0;pointerEvents=0;fillColor=none;top=0;left=0;bottom=0;right=0;points=[[0,0.5],[1,0.5]];portConstraint=eastwest;" parent="gFz-W14YJBDqkf8OOEzb-222" vertex="1">
          <mxGeometry y="60" width="180" height="30" as="geometry" />
        </mxCell>
        <mxCell id="gFz-W14YJBDqkf8OOEzb-227" value="" style="shape=partialRectangle;connectable=0;fillColor=none;top=0;left=0;bottom=0;right=0;editable=1;overflow=hidden;" parent="gFz-W14YJBDqkf8OOEzb-226" vertex="1">
          <mxGeometry width="30" height="30" as="geometry">
            <mxRectangle width="30" height="30" as="alternateBounds" />
          </mxGeometry>
        </mxCell>
        <mxCell id="gFz-W14YJBDqkf8OOEzb-228" value="cartId" style="shape=partialRectangle;connectable=0;fillColor=none;top=0;left=0;bottom=0;right=0;align=left;spacingLeft=6;overflow=hidden;" parent="gFz-W14YJBDqkf8OOEzb-226" vertex="1">
          <mxGeometry x="30" width="150" height="30" as="geometry">
            <mxRectangle width="150" height="30" as="alternateBounds" />
          </mxGeometry>
        </mxCell>
        <mxCell id="gFz-W14YJBDqkf8OOEzb-236" value="" style="edgeStyle=entityRelationEdgeStyle;fontSize=12;html=1;endArrow=ERoneToMany;rounded=0;exitX=1;exitY=0.5;exitDx=0;exitDy=0;entryX=0;entryY=0.5;entryDx=0;entryDy=0;" parent="1" source="gFz-W14YJBDqkf8OOEzb-158" target="gFz-W14YJBDqkf8OOEzb-190" edge="1">
          <mxGeometry width="100" height="100" relative="1" as="geometry">
            <mxPoint x="560" y="20" as="sourcePoint" />
            <mxPoint x="660" y="-80" as="targetPoint" />
          </mxGeometry>
        </mxCell>
        <mxCell id="gFz-W14YJBDqkf8OOEzb-237" value="" style="edgeStyle=entityRelationEdgeStyle;fontSize=12;html=1;endArrow=ERzeroToMany;endFill=1;rounded=0;exitX=0;exitY=0.5;exitDx=0;exitDy=0;entryX=1;entryY=0.5;entryDx=0;entryDy=0;" parent="1" source="gFz-W14YJBDqkf8OOEzb-226" target="gFz-W14YJBDqkf8OOEzb-187" edge="1">
          <mxGeometry width="100" height="100" relative="1" as="geometry">
            <mxPoint x="560" y="20" as="sourcePoint" />
            <mxPoint x="660" y="-80" as="targetPoint" />
          </mxGeometry>
        </mxCell>
        <mxCell id="gFz-W14YJBDqkf8OOEzb-238" value="User" style="shape=table;startSize=30;container=1;collapsible=1;childLayout=tableLayout;fixedRows=1;rowLines=0;fontStyle=1;align=center;resizeLast=1;" parent="1" vertex="1">
          <mxGeometry x="940" y="20" width="180" height="270" as="geometry" />
        </mxCell>
        <mxCell id="gFz-W14YJBDqkf8OOEzb-239" value="" style="shape=partialRectangle;collapsible=0;dropTarget=0;pointerEvents=0;fillColor=none;top=0;left=0;bottom=1;right=0;points=[[0,0.5],[1,0.5]];portConstraint=eastwest;" parent="gFz-W14YJBDqkf8OOEzb-238" vertex="1">
          <mxGeometry y="30" width="180" height="30" as="geometry" />
        </mxCell>
        <mxCell id="gFz-W14YJBDqkf8OOEzb-240" value="PK" style="shape=partialRectangle;connectable=0;fillColor=none;top=0;left=0;bottom=0;right=0;fontStyle=1;overflow=hidden;" parent="gFz-W14YJBDqkf8OOEzb-239" vertex="1">
          <mxGeometry width="30" height="30" as="geometry">
            <mxRectangle width="30" height="30" as="alternateBounds" />
          </mxGeometry>
        </mxCell>
        <mxCell id="gFz-W14YJBDqkf8OOEzb-241" value="userID" style="shape=partialRectangle;connectable=0;fillColor=none;top=0;left=0;bottom=0;right=0;align=left;spacingLeft=6;fontStyle=5;overflow=hidden;" parent="gFz-W14YJBDqkf8OOEzb-239" vertex="1">
          <mxGeometry x="30" width="150" height="30" as="geometry">
            <mxRectangle width="150" height="30" as="alternateBounds" />
          </mxGeometry>
        </mxCell>
        <mxCell id="gFz-W14YJBDqkf8OOEzb-242" value="" style="shape=partialRectangle;collapsible=0;dropTarget=0;pointerEvents=0;fillColor=none;top=0;left=0;bottom=0;right=0;points=[[0,0.5],[1,0.5]];portConstraint=eastwest;" parent="gFz-W14YJBDqkf8OOEzb-238" vertex="1">
          <mxGeometry y="60" width="180" height="30" as="geometry" />
        </mxCell>
        <mxCell id="gFz-W14YJBDqkf8OOEzb-243" value="" style="shape=partialRectangle;connectable=0;fillColor=none;top=0;left=0;bottom=0;right=0;editable=1;overflow=hidden;" parent="gFz-W14YJBDqkf8OOEzb-242" vertex="1">
          <mxGeometry width="30" height="30" as="geometry">
            <mxRectangle width="30" height="30" as="alternateBounds" />
          </mxGeometry>
        </mxCell>
        <mxCell id="gFz-W14YJBDqkf8OOEzb-244" value="username" style="shape=partialRectangle;connectable=0;fillColor=none;top=0;left=0;bottom=0;right=0;align=left;spacingLeft=6;overflow=hidden;" parent="gFz-W14YJBDqkf8OOEzb-242" vertex="1">
          <mxGeometry x="30" width="150" height="30" as="geometry">
            <mxRectangle width="150" height="30" as="alternateBounds" />
          </mxGeometry>
        </mxCell>
        <mxCell id="gFz-W14YJBDqkf8OOEzb-245" value="" style="shape=partialRectangle;collapsible=0;dropTarget=0;pointerEvents=0;fillColor=none;top=0;left=0;bottom=0;right=0;points=[[0,0.5],[1,0.5]];portConstraint=eastwest;" parent="gFz-W14YJBDqkf8OOEzb-238" vertex="1">
          <mxGeometry y="90" width="180" height="30" as="geometry" />
        </mxCell>
        <mxCell id="gFz-W14YJBDqkf8OOEzb-246" value="" style="shape=partialRectangle;connectable=0;fillColor=none;top=0;left=0;bottom=0;right=0;editable=1;overflow=hidden;" parent="gFz-W14YJBDqkf8OOEzb-245" vertex="1">
          <mxGeometry width="30" height="30" as="geometry">
            <mxRectangle width="30" height="30" as="alternateBounds" />
          </mxGeometry>
        </mxCell>
        <mxCell id="gFz-W14YJBDqkf8OOEzb-247" value="password" style="shape=partialRectangle;connectable=0;fillColor=none;top=0;left=0;bottom=0;right=0;align=left;spacingLeft=6;overflow=hidden;" parent="gFz-W14YJBDqkf8OOEzb-245" vertex="1">
          <mxGeometry x="30" width="150" height="30" as="geometry">
            <mxRectangle width="150" height="30" as="alternateBounds" />
          </mxGeometry>
        </mxCell>
        <mxCell id="gFz-W14YJBDqkf8OOEzb-248" value="" style="shape=partialRectangle;collapsible=0;dropTarget=0;pointerEvents=0;fillColor=none;top=0;left=0;bottom=0;right=0;points=[[0,0.5],[1,0.5]];portConstraint=eastwest;" parent="gFz-W14YJBDqkf8OOEzb-238" vertex="1">
          <mxGeometry y="120" width="180" height="30" as="geometry" />
        </mxCell>
        <mxCell id="gFz-W14YJBDqkf8OOEzb-249" value="" style="shape=partialRectangle;connectable=0;fillColor=none;top=0;left=0;bottom=0;right=0;editable=1;overflow=hidden;" parent="gFz-W14YJBDqkf8OOEzb-248" vertex="1">
          <mxGeometry width="30" height="30" as="geometry">
            <mxRectangle width="30" height="30" as="alternateBounds" />
          </mxGeometry>
        </mxCell>
        <mxCell id="gFz-W14YJBDqkf8OOEzb-250" value="email" style="shape=partialRectangle;connectable=0;fillColor=none;top=0;left=0;bottom=0;right=0;align=left;spacingLeft=6;overflow=hidden;" parent="gFz-W14YJBDqkf8OOEzb-248" vertex="1">
          <mxGeometry x="30" width="150" height="30" as="geometry">
            <mxRectangle width="150" height="30" as="alternateBounds" />
          </mxGeometry>
        </mxCell>
        <mxCell id="gFz-W14YJBDqkf8OOEzb-251" value="" style="shape=partialRectangle;collapsible=0;dropTarget=0;pointerEvents=0;fillColor=none;top=0;left=0;bottom=0;right=0;points=[[0,0.5],[1,0.5]];portConstraint=eastwest;" parent="gFz-W14YJBDqkf8OOEzb-238" vertex="1">
          <mxGeometry y="150" width="180" height="30" as="geometry" />
        </mxCell>
        <mxCell id="gFz-W14YJBDqkf8OOEzb-252" value="" style="shape=partialRectangle;connectable=0;fillColor=none;top=0;left=0;bottom=0;right=0;editable=1;overflow=hidden;" parent="gFz-W14YJBDqkf8OOEzb-251" vertex="1">
          <mxGeometry width="30" height="30" as="geometry">
            <mxRectangle width="30" height="30" as="alternateBounds" />
          </mxGeometry>
        </mxCell>
        <mxCell id="gFz-W14YJBDqkf8OOEzb-253" value="phone" style="shape=partialRectangle;connectable=0;fillColor=none;top=0;left=0;bottom=0;right=0;align=left;spacingLeft=6;overflow=hidden;" parent="gFz-W14YJBDqkf8OOEzb-251" vertex="1">
          <mxGeometry x="30" width="150" height="30" as="geometry">
            <mxRectangle width="150" height="30" as="alternateBounds" />
          </mxGeometry>
        </mxCell>
        <mxCell id="gFz-W14YJBDqkf8OOEzb-254" value="" style="shape=partialRectangle;collapsible=0;dropTarget=0;pointerEvents=0;fillColor=none;top=0;left=0;bottom=0;right=0;points=[[0,0.5],[1,0.5]];portConstraint=eastwest;" parent="gFz-W14YJBDqkf8OOEzb-238" vertex="1">
          <mxGeometry y="180" width="180" height="30" as="geometry" />
        </mxCell>
        <mxCell id="gFz-W14YJBDqkf8OOEzb-255" value="" style="shape=partialRectangle;connectable=0;fillColor=none;top=0;left=0;bottom=0;right=0;editable=1;overflow=hidden;" parent="gFz-W14YJBDqkf8OOEzb-254" vertex="1">
          <mxGeometry width="30" height="30" as="geometry">
            <mxRectangle width="30" height="30" as="alternateBounds" />
          </mxGeometry>
        </mxCell>
        <mxCell id="gFz-W14YJBDqkf8OOEzb-256" value="name" style="shape=partialRectangle;connectable=0;fillColor=none;top=0;left=0;bottom=0;right=0;align=left;spacingLeft=6;overflow=hidden;" parent="gFz-W14YJBDqkf8OOEzb-254" vertex="1">
          <mxGeometry x="30" width="150" height="30" as="geometry">
            <mxRectangle width="150" height="30" as="alternateBounds" />
          </mxGeometry>
        </mxCell>
        <mxCell id="gFz-W14YJBDqkf8OOEzb-257" value="" style="shape=partialRectangle;collapsible=0;dropTarget=0;pointerEvents=0;fillColor=none;top=0;left=0;bottom=0;right=0;points=[[0,0.5],[1,0.5]];portConstraint=eastwest;" parent="gFz-W14YJBDqkf8OOEzb-238" vertex="1">
          <mxGeometry y="210" width="180" height="30" as="geometry" />
        </mxCell>
        <mxCell id="gFz-W14YJBDqkf8OOEzb-258" value="" style="shape=partialRectangle;connectable=0;fillColor=none;top=0;left=0;bottom=0;right=0;editable=1;overflow=hidden;" parent="gFz-W14YJBDqkf8OOEzb-257" vertex="1">
          <mxGeometry width="30" height="30" as="geometry">
            <mxRectangle width="30" height="30" as="alternateBounds" />
          </mxGeometry>
        </mxCell>
        <mxCell id="gFz-W14YJBDqkf8OOEzb-259" value="address" style="shape=partialRectangle;connectable=0;fillColor=none;top=0;left=0;bottom=0;right=0;align=left;spacingLeft=6;overflow=hidden;" parent="gFz-W14YJBDqkf8OOEzb-257" vertex="1">
          <mxGeometry x="30" width="150" height="30" as="geometry">
            <mxRectangle width="150" height="30" as="alternateBounds" />
          </mxGeometry>
        </mxCell>
        <mxCell id="gFz-W14YJBDqkf8OOEzb-260" value="" style="shape=partialRectangle;collapsible=0;dropTarget=0;pointerEvents=0;fillColor=none;top=0;left=0;bottom=0;right=0;points=[[0,0.5],[1,0.5]];portConstraint=eastwest;" parent="gFz-W14YJBDqkf8OOEzb-238" vertex="1">
          <mxGeometry y="240" width="180" height="30" as="geometry" />
        </mxCell>
        <mxCell id="gFz-W14YJBDqkf8OOEzb-261" value="" style="shape=partialRectangle;connectable=0;fillColor=none;top=0;left=0;bottom=0;right=0;editable=1;overflow=hidden;" parent="gFz-W14YJBDqkf8OOEzb-260" vertex="1">
          <mxGeometry width="30" height="30" as="geometry">
            <mxRectangle width="30" height="30" as="alternateBounds" />
          </mxGeometry>
        </mxCell>
        <mxCell id="gFz-W14YJBDqkf8OOEzb-262" value="isAdmin" style="shape=partialRectangle;connectable=0;fillColor=none;top=0;left=0;bottom=0;right=0;align=left;spacingLeft=6;overflow=hidden;" parent="gFz-W14YJBDqkf8OOEzb-260" vertex="1">
          <mxGeometry x="30" width="150" height="30" as="geometry">
            <mxRectangle width="150" height="30" as="alternateBounds" />
          </mxGeometry>
        </mxCell>
        <mxCell id="gFz-W14YJBDqkf8OOEzb-263" value="" style="edgeStyle=entityRelationEdgeStyle;fontSize=12;html=1;endArrow=ERmandOne;startArrow=ERmandOne;rounded=0;exitX=1;exitY=0.5;exitDx=0;exitDy=0;entryX=0;entryY=0.5;entryDx=0;entryDy=0;" parent="1" source="gFz-W14YJBDqkf8OOEzb-223" target="gFz-W14YJBDqkf8OOEzb-239" edge="1">
          <mxGeometry width="100" height="100" relative="1" as="geometry">
            <mxPoint x="560" y="20" as="sourcePoint" />
            <mxPoint x="660" y="-80" as="targetPoint" />
          </mxGeometry>
        </mxCell>
        <mxCell id="gFz-W14YJBDqkf8OOEzb-264" value="Order" style="shape=table;startSize=30;container=1;collapsible=1;childLayout=tableLayout;fixedRows=1;rowLines=0;fontStyle=1;align=center;resizeLast=1;" parent="1" vertex="1">
          <mxGeometry x="1240" y="20" width="180" height="160" as="geometry" />
        </mxCell>
        <mxCell id="gFz-W14YJBDqkf8OOEzb-265" value="" style="shape=partialRectangle;collapsible=0;dropTarget=0;pointerEvents=0;fillColor=none;top=0;left=0;bottom=1;right=0;points=[[0,0.5],[1,0.5]];portConstraint=eastwest;" parent="gFz-W14YJBDqkf8OOEzb-264" vertex="1">
          <mxGeometry y="30" width="180" height="30" as="geometry" />
        </mxCell>
        <mxCell id="gFz-W14YJBDqkf8OOEzb-266" value="PK" style="shape=partialRectangle;connectable=0;fillColor=none;top=0;left=0;bottom=0;right=0;fontStyle=1;overflow=hidden;" parent="gFz-W14YJBDqkf8OOEzb-265" vertex="1">
          <mxGeometry width="30" height="30" as="geometry">
            <mxRectangle width="30" height="30" as="alternateBounds" />
          </mxGeometry>
        </mxCell>
        <mxCell id="gFz-W14YJBDqkf8OOEzb-267" value="orderId" style="shape=partialRectangle;connectable=0;fillColor=none;top=0;left=0;bottom=0;right=0;align=left;spacingLeft=6;fontStyle=5;overflow=hidden;" parent="gFz-W14YJBDqkf8OOEzb-265" vertex="1">
          <mxGeometry x="30" width="150" height="30" as="geometry">
            <mxRectangle width="150" height="30" as="alternateBounds" />
          </mxGeometry>
        </mxCell>
        <mxCell id="gFz-W14YJBDqkf8OOEzb-268" value="" style="shape=partialRectangle;collapsible=0;dropTarget=0;pointerEvents=0;fillColor=none;top=0;left=0;bottom=0;right=0;points=[[0,0.5],[1,0.5]];portConstraint=eastwest;" parent="gFz-W14YJBDqkf8OOEzb-264" vertex="1">
          <mxGeometry y="60" width="180" height="30" as="geometry" />
        </mxCell>
        <mxCell id="gFz-W14YJBDqkf8OOEzb-269" value="" style="shape=partialRectangle;connectable=0;fillColor=none;top=0;left=0;bottom=0;right=0;editable=1;overflow=hidden;" parent="gFz-W14YJBDqkf8OOEzb-268" vertex="1">
          <mxGeometry width="30" height="30" as="geometry">
            <mxRectangle width="30" height="30" as="alternateBounds" />
          </mxGeometry>
        </mxCell>
        <mxCell id="gFz-W14YJBDqkf8OOEzb-270" value="userID" style="shape=partialRectangle;connectable=0;fillColor=none;top=0;left=0;bottom=0;right=0;align=left;spacingLeft=6;overflow=hidden;" parent="gFz-W14YJBDqkf8OOEzb-268" vertex="1">
          <mxGeometry x="30" width="150" height="30" as="geometry">
            <mxRectangle width="150" height="30" as="alternateBounds" />
          </mxGeometry>
        </mxCell>
        <mxCell id="gFz-W14YJBDqkf8OOEzb-271" value="" style="shape=partialRectangle;collapsible=0;dropTarget=0;pointerEvents=0;fillColor=none;top=0;left=0;bottom=0;right=0;points=[[0,0.5],[1,0.5]];portConstraint=eastwest;" parent="gFz-W14YJBDqkf8OOEzb-264" vertex="1">
          <mxGeometry y="90" width="180" height="30" as="geometry" />
        </mxCell>
        <mxCell id="gFz-W14YJBDqkf8OOEzb-272" value="" style="shape=partialRectangle;connectable=0;fillColor=none;top=0;left=0;bottom=0;right=0;editable=1;overflow=hidden;" parent="gFz-W14YJBDqkf8OOEzb-271" vertex="1">
          <mxGeometry width="30" height="30" as="geometry">
            <mxRectangle width="30" height="30" as="alternateBounds" />
          </mxGeometry>
        </mxCell>
        <mxCell id="gFz-W14YJBDqkf8OOEzb-273" value="total" style="shape=partialRectangle;connectable=0;fillColor=none;top=0;left=0;bottom=0;right=0;align=left;spacingLeft=6;overflow=hidden;" parent="gFz-W14YJBDqkf8OOEzb-271" vertex="1">
          <mxGeometry x="30" width="150" height="30" as="geometry">
            <mxRectangle width="150" height="30" as="alternateBounds" />
          </mxGeometry>
        </mxCell>
        <mxCell id="gFz-W14YJBDqkf8OOEzb-274" value="" style="shape=partialRectangle;collapsible=0;dropTarget=0;pointerEvents=0;fillColor=none;top=0;left=0;bottom=0;right=0;points=[[0,0.5],[1,0.5]];portConstraint=eastwest;" parent="gFz-W14YJBDqkf8OOEzb-264" vertex="1">
          <mxGeometry y="120" width="180" height="30" as="geometry" />
        </mxCell>
        <mxCell id="gFz-W14YJBDqkf8OOEzb-275" value="" style="shape=partialRectangle;connectable=0;fillColor=none;top=0;left=0;bottom=0;right=0;editable=1;overflow=hidden;" parent="gFz-W14YJBDqkf8OOEzb-274" vertex="1">
          <mxGeometry width="30" height="30" as="geometry">
            <mxRectangle width="30" height="30" as="alternateBounds" />
          </mxGeometry>
        </mxCell>
        <mxCell id="gFz-W14YJBDqkf8OOEzb-276" value="status" style="shape=partialRectangle;connectable=0;fillColor=none;top=0;left=0;bottom=0;right=0;align=left;spacingLeft=6;overflow=hidden;" parent="gFz-W14YJBDqkf8OOEzb-274" vertex="1">
          <mxGeometry x="30" width="150" height="30" as="geometry">
            <mxRectangle width="150" height="30" as="alternateBounds" />
          </mxGeometry>
        </mxCell>
        <mxCell id="gFz-W14YJBDqkf8OOEzb-278" value="" style="edgeStyle=entityRelationEdgeStyle;fontSize=12;html=1;endArrow=ERzeroToMany;endFill=1;rounded=0;exitX=1;exitY=0.5;exitDx=0;exitDy=0;entryX=0;entryY=0.5;entryDx=0;entryDy=0;" parent="1" source="gFz-W14YJBDqkf8OOEzb-239" target="gFz-W14YJBDqkf8OOEzb-268" edge="1">
          <mxGeometry width="100" height="100" relative="1" as="geometry">
            <mxPoint x="930" y="20" as="sourcePoint" />
            <mxPoint x="1030" y="-80" as="targetPoint" />
          </mxGeometry>
        </mxCell>
      </root>
    </mxGraphModel>
  </diagram>
</mxfile>
